<svg width="1057.21" height="835.54" xmlns="http://www.w3.org/2000/svg" data-name="Layer 1">
 <defs>
  <linearGradient id="4cde2cde-bd85-47c9-bab2-0e38d604e335-90" x1="0.50049" y1="1" x2="0.50049" y2="-0.00001">
   <stop offset="0" stop-color="gray" stop-opacity="0.25"/>
   <stop offset="0.54" stop-color="gray" stop-opacity="0.12"/>
   <stop offset="1" stop-color="gray" stop-opacity="0.1"/>
  </linearGradient>
 </defs>
 <title>sleep analysis</title>
 <g>
  <title>Layer 1</title>
  <path d="m983.69,563.22c-41.32,30.7 -44.88,91 -37.78,142c2.38,17.07 5.37,35.26 -1.84,50.91c-8.82,19.14 -30.7,28.94 -51.61,31.61c-38.11,4.86 -78.19,-9.65 -104.35,-37.79c-22.61,-24.32 -34.61,-57.13 -57.9,-80.8c-39,-39.61 -100.67,-45.42 -156,-40.45c-39.15,3.51 -82.7,10.08 -114.31,-13.29c-22.24,-16.45 -33,-44.7 -35.6,-72.24c-1.24,-13.3 -1,-27.25 -7,-39.16c-3.59,-7.08 -9.19,-12.94 -15.13,-18.21c-54.24,-48.11 -137.93,-53 -189.44,-104c-34.79,-34.45 -49.19,-85.52 -48.4,-134.47s15.19,-96.6 31,-143c11.21,-32.94 24.7,-67.7 53.14,-87.74c30.01,-21.19 71.65,-20.82 105.37,-6.06s60.54,41.94 82.63,71.38c27.61,36.8 50.85,79.6 90.85,102.33c27.29,15.53 59.16,19.74 89.75,26.53c51.13,11.33 100.2,30.35 148.83,49.8c46.56,18.61 93.31,37.88 134.85,66c29.4,19.87 49.92,47 76.71,69.36c17.46,14.57 38.52,23 54.24,39.78c19.36,20.67 33.91,51.43 20,79c-13.2,26.19 -46.09,32.21 -68.01,48.51z" fill="#6c63ff" opacity="0.1" id="svg_1"/>
  <path d="m7.12,564.68s-49.57,77.44 112.93,78.77c0,0 2.39,-67.38 -50.73,-95.14a47.66,47.66 0 0 0 -61.44,15.22l-0.76,1.15z" fill="#6c63ff" id="svg_10"/>
  <path d="m7.49,563.38s83.23,16.4 112.56,80.07" fill="none" stroke="#535461" stroke-miterlimit="10" id="svg_11"/>
  <path d="m127.31,633.03s-53.44,-69.06 -48.56,-137.14c2,-28.57 -4.71,-57.11 -20.21,-81.21a222.5,222.5 0 0 0 -25.11,-32" fill="none" stroke="#535461" stroke-miterlimit="10" stroke-width="2" id="svg_12"/>
  <path d="m36.23,339.77c3.73,9.56 -2.76,44.05 -2.76,44.05s-28.13,-20.99 -31.86,-30.55a18.59,18.59 0 1 1 34.62,-13.5z" fill="#6c63ff" id="svg_13"/>
  <path d="m85.53,381.55c-2.06,10.06 -26.26,35.48 -26.26,35.48s-12.22,-32.9 -10.16,-43a18.59,18.59 0 1 1 36.41,7.47l0.01,0.05z" fill="#6c63ff" id="svg_14"/>
  <path d="m119.61,472.55c-6.86,7.64 -40.57,17.37 -40.57,17.37s6.06,-34.57 12.91,-42.21a18.59,18.59 0 0 1 27.66,24.84z" fill="#6c63ff" id="svg_15"/>
  <path d="m129.89,547.22c-5.47,8.69 -37.06,24 -37.06,24s0.13,-35.09 5.6,-43.78a18.59,18.59 0 1 1 31.46,19.8l0,-0.02z" fill="#6c63ff" id="svg_16"/>
  <path d="m23.61,433.07c9.46,4 44.11,-1.58 44.11,-1.58s-20.18,-28.72 -29.64,-32.72a18.59,18.59 0 1 0 -14.47,34.3z" fill="#6c63ff" id="svg_17"/>
  <path d="m36.77,520.24c10.22,1 41.61,-14.71 41.61,-14.71s-27.87,-21.32 -38.09,-22.3a18.59,18.59 0 1 0 -3.52,37l0,0.01z" fill="#6c63ff" id="svg_18"/>
  <path d="m61.16,603.2c9.91,2.69 43.5,-7.47 43.5,-7.47s-23.87,-25.73 -33.78,-28.41a18.59,18.59 0 1 0 -9.72,35.88z" fill="#6c63ff" id="svg_19"/>
  <path d="m36.23,339.77c3.73,9.56 -2.76,44.05 -2.76,44.05s-28.13,-20.99 -31.86,-30.55a18.59,18.59 0 1 1 34.62,-13.5z" opacity="0.25" id="svg_20"/>
  <path d="m85.53,381.55c-2.06,10.06 -26.26,35.48 -26.26,35.48s-12.22,-32.9 -10.16,-43a18.59,18.59 0 1 1 36.41,7.47l0.01,0.05z" opacity="0.25" id="svg_21"/>
  <path d="m119.61,472.55c-6.86,7.64 -40.57,17.37 -40.57,17.37s6.06,-34.57 12.91,-42.21a18.59,18.59 0 0 1 27.66,24.84z" opacity="0.25" id="svg_22"/>
  <path d="m129.89,547.22c-5.47,8.69 -37.06,24 -37.06,24s0.13,-35.09 5.6,-43.78a18.59,18.59 0 1 1 31.46,19.8l0,-0.02z" opacity="0.25" id="svg_23"/>
  <path d="m23.61,433.07c9.46,4 44.11,-1.58 44.11,-1.58s-20.18,-28.72 -29.64,-32.72a18.59,18.59 0 1 0 -14.47,34.3z" opacity="0.25" id="svg_24"/>
  <path d="m36.77,520.24c10.22,1 41.61,-14.71 41.61,-14.71s-27.87,-21.32 -38.09,-22.3a18.59,18.59 0 1 0 -3.52,37l0,0.01z" opacity="0.25" id="svg_25"/>
  <path d="m61.16,603.2c9.91,2.69 43.5,-7.47 43.5,-7.47s-23.87,-25.73 -33.78,-28.41a18.59,18.59 0 1 0 -9.72,35.88z" opacity="0.25" id="svg_26"/>
  <path d="m463.5,500.44c-19,-0.42 -39.41,0.53 -54.51,8c-28,13.82 -24.23,41.85 -42.49,61.3c-15.42,16.42 -44.89,24.95 -73.47,30.39c-46.56,8.87 -95.39,12.19 -141.63,21.72c-27.26,5.62 -54.32,13.79 -73,27.77s-27.06,34.83 -14.43,51.37c11.68,15.29 37.41,23.47 60.84,31.39s48.25,18.31 54.77,34.82c3.63,9.19 0.93,19.1 5.17,28.17c8.36,17.9 39.67,26.35 67.8,30.92c22.47,3.65 45.31,6.34 68.33,8c18.39,1.35 37.2,2.06 55.25,-0.57c15.63,-2.28 30.1,-7 45.09,-10.63c95.24,-23.19 204.78,-3.13 301.92,-22.77c17.68,-3.55 35.07,-8.55 48.47,-16.73c10,-6.08 17.4,-13.68 23.63,-21.56c15.86,-20 24.55,-42.43 25.22,-64.92c0.4,-13.48 -2,-27.1 1.69,-40.38c3.87,-13.82 14.2,-26.53 19.7,-40.12c10,-24.7 3,-52 -18.77,-73.37a70,70 0 0 0 -27.8,-17.28c-8.8,-2.82 -18.64,-3.9 -28.33,-5c-27,-2.93 -54.35,-5.87 -81.59,-4.22c-19.38,1.18 -38.35,4.67 -57.79,5.3c-27.28,0.89 -48.65,-5.4 -73.38,-11.31c-28.45,-6.74 -60.46,-9.63 -90.69,-10.29z" fill="#6c63ff" opacity="0.1" id="svg_27"/>
  <polygon points="120.14 296.01 120.14 563.48 476.02 494.35 469.22 289.21 120.14 296.01" fill="#dbaca2" id="svg_28"/>
  <polygon points="789.11 611.37 789.11 699.77 412.83 809.71 408.99 807.72 111.36 653.3 111.36 287.79 479.7 275.89 481.97 478.76 467.23 483.3 461.56 293.55 137.42 304.79 135.16 579.63 417.36 703.17 417.58 703.12 789.11 611.37" fill="#e8c2b8" id="svg_29"/>
  <polygon points="789.11 611.37 789.11 699.77 412.83 809.71 408.99 807.72 417.58 703.12 789.11 611.37" opacity="0.1" id="svg_30"/>
  <path d="m335.48,483.01s-182.18,18.18 -199.87,44.51s-0.15,58.63 -0.15,58.63l281.64,122.4l381.94,-98.6s-10.2,-69.14 -41.93,-77.07s-284.5,-62.33 -284.5,-62.33s-102,-6.24 -137.13,12.46z" fill="#ebecf0" id="svg_31"/>
  <path d="m135.44,527.77l287.31,99.17s306.45,-92.92 349.86,-84.17c0,0 -214.37,-76.73 -300,-73.39c-68.24,2.66 -139.69,13.86 -139.69,13.86s-189.54,19.04 -197.48,44.53z" fill="#f8f9fa" id="svg_32"/>
  <path d="m648.88,623.8l0,0l0.07,-0.1l0,-0.06l0.05,-0.1l0,-0.07l0,-0.1l0,-0.07l0,-0.11l0,-0.07l0,-0.13l0,-0.06q0,-0.09 0,-0.18l0,0c0,-0.07 0,-0.14 0,-0.21s0,0 0,-0.07s0,-0.1 0,-0.15l0,-0.09l0,-0.15l0,-0.1l0,-0.15l0,-0.1l0,-0.16l0,-0.1l0,-0.17l0,-0.09l-0.08,-0.25l0,0l-0.1,-0.28l0,-0.09l-0.08,-0.2l0,-0.11l-0.08,-0.19l-0.05,-0.12l-0.08,-0.19l-0.06,-0.13l-0.09,-0.19l-0.06,-0.12l-0.11,-0.21l-0.06,-0.11l-0.15,-0.29l0,0l-0.18,-0.34l-0.06,-0.11l-0.13,-0.24l-0.07,-0.13l-0.13,-0.22l-0.08,-0.14l-0.13,-0.22l-0.22,-0.33l-0.14,-0.22l-0.09,-0.14l-0.15,-0.24l-0.08,-0.13l-0.2,-0.32l0,-0.06l-0.25,-0.38l-0.08,-0.11l-0.18,-0.27l-0.1,-0.14l-0.17,-0.24l-0.1,-0.15l-0.17,-0.24l-0.11,-0.16l-0.18,-0.2l-0.11,-0.15l-0.19,-0.26l-0.1,-0.13l-0.25,-0.34l0,-0.05l-0.29,-0.4l-0.1,-0.14l-0.19,-0.26l-0.13,-0.17l-0.18,-0.24l-0.13,-0.17l-0.18,-0.24l-0.13,-0.16l-0.19,-0.25l-0.13,-0.16l-0.2,-0.26l-0.12,-0.15l-0.24,-0.3l-0.08,-0.1l0,0c-0.9,-1.14 -1.83,-2.28 -2.76,-3.38a31,31 0 0 0 -21.08,-10.93c-0.83,-0.07 -1.7,-0.16 -2.58,-0.27l-0.37,0l-0.65,-0.09l-0.31,0l-1,-0.14l0,0l-0.95,-0.15l-0.33,-0.06l-0.67,-0.12l-0.4,-0.08l-0.61,-0.12l-0.43,-0.09l-0.58,-0.13l-0.44,-0.1l-0.58,-0.14l-0.45,-0.11l-0.57,-0.15l-0.45,-0.12l-0.57,-0.16l0,0c-3,-4.46 -7.56,-8.43 -12,-9.2a9,9 0 0 0 -3.67,0.19l-0.21,-0.23l-0.3,-0.34l-0.4,-0.51l-0.26,-0.34l-0.42,-0.59l-0.21,-0.29q-0.31,-0.45 -0.59,-0.92a8.94,8.94 0 0 0 -1.84,-0.59a165.3,165.3 0 0 0 26.09,-6.15a5.56,5.56 0 0 0 1.17,-0.61l0.18,-0.06c7.41,-2.7 16.51,-29 10.11,-32.68s-16.17,-34 -21.9,-49.53s-22.24,-17.18 -22.24,-17.18s-23.92,-18.53 -34.7,-16.51s-12.47,-14.15 -13.48,-14.82a1.22,1.22 0 0 1 -0.29,-0.35c-2.6,-4.07 -23.27,-9.5 -34.42,-12.18c-10.9,-7.9 -23.9,-14.03 -34.41,-16.56a23.56,23.56 0 0 0 -20.56,4.1c-22.08,1.12 -25.6,17.8 -25.6,17.8a16.55,16.55 0 0 0 1.16,6.66a26.81,26.81 0 0 1 -3.57,-0.19c2.56,-4.23 2.64,-9.67 4.55,-14.32c3.77,-9.2 14.17,-13.95 24,-15.19c5.73,-0.72 12,-0.72 16.52,-4.31a12.53,12.53 0 0 0 4.48,-7.41a2.66,2.66 0 0 0 -0.16,-1.9a2.71,2.71 0 0 0 -1.09,-0.88c-5.92,-3.16 -13.05,-2.34 -19.77,-2.49c-10.92,-0.24 -21.56,-3.23 -32.12,-6c-4.47,-1.17 -9.3,-2.3 -13.62,-0.64c-4.08,1.56 -6.86,5.28 -10.13,8.17c-13.4,11.82 -35.65,10.11 -47.57,23.43c-2.76,3.09 -4.83,7.28 -3.82,11.3c0.41,1.64 1.32,3.15 1.61,4.82c0.58,3.3 -1.3,6.46 -2.89,9.41s-3,6.53 -1.5,9.53c2.27,4.58 9.2,4.24 12.8,7.87c1.67,1.69 2.48,4.11 4.22,5.72c2.79,2.57 7.08,2.37 10.86,2c1.49,-0.14 3.72,-0.55 4.54,-1.86a25.93,25.93 0 0 0 40.81,-7a36.6,36.6 0 0 1 23,6.22a16.34,16.34 0 0 0 5.38,7.6c2.36,1.85 5.17,4.12 8,6.55c-7.17,1.89 -13.54,3.1 -13.54,3.1s-28.3,9.1 -28.3,15.16a7.49,7.49 0 0 0 1,3.11a12.39,12.39 0 0 0 -1.19,4.81c-7.81,-1.32 -14.06,-3.31 -17.29,-6.24c0,0 -0.92,-0.25 -2.34,-0.53c-1.9,-2.43 -7.48,-9.18 -10.8,-8.91c-2.21,0.18 -3,5.32 -3.28,9.92a4.29,4.29 0 0 0 -0.76,0.86c-3.37,5.05 2.7,15.16 6.74,16.85s26.28,1 41.44,12.13c6.72,4.93 18.27,5.88 29,5.42c-10.79,7.62 -25.9,19.33 -28,26.59c-1.13,3.85 -2.46,8.63 -2.38,13.54c-6.6,8.73 -16.59,27.16 8.11,36c20.36,7.27 75.56,6.34 114.89,4.56c18.3,3.23 33.41,6.48 39.75,9.59c0,0 15.16,2 21.23,5.73s17.18,2.7 17.18,2.7s21.56,3.71 26.28,8.42s12.8,-8.09 2.7,-14.15c-3.94,-2.36 -9.81,-6.25 -15.5,-10.51c7.31,0.86 13.76,1.8 17.86,2.76l0.41,0.09l0.13,0l0.26,0l0.15,0l0.22,0l0.14,0l0.21,0l1,0l0.26,0l0.08,0l0.16,0l0.09,0l0.13,0l0.08,0l0.12,0l0.08,0l0.11,-0.05l0.07,0l0.1,-0.07l0.05,0l0.13,-0.11l0,0l0.08,-0.24zm-93.07,-32.3s-2.84,-0.65 -7.08,-1.65l-8.42,-3.4s14.37,-4.52 27.68,-10.27c3.81,1.67 7.16,3 8,4.21a2.27,2.27 0 0 0 1.39,0.73c-5,1.24 -11.42,4.43 -18.95,11.79a16.78,16.78 0 0 1 -2.62,-1.41zm-101.74,-81.2l8.31,-3.86c1.81,1.54 3.75,3 5.65,4.42c-4.56,0.27 -10.69,0.57 -17.62,0.76c2.12,-0.71 3.66,-1.32 3.66,-1.32z" transform="translate(-71.39 -32.23)" fill="url(#4cde2cde-bd85-47c9-bab2-0e38d604e335-90)" id="svg_33"/>
  <path d="m311.87,471.63s-7.26,-9.86 -11.21,-9.56s-3.3,16.82 -3.3,16.82l14.51,-7.26z" fill="#ffd5d8" id="svg_34"/>
  <path d="m405.21,478.23s-77.18,6.27 -91.69,-6.93c0,0 -13.52,-3.63 -16.82,1.32s2.64,14.84 6.6,16.49s25.73,1 40.57,11.87s53.76,2 53.76,2l16.16,-6.27l-8.58,-18.48z" fill="#ff7c5e" id="svg_35"/>
  <path d="m405.21,478.23s-77.18,6.27 -91.69,-6.93c0,0 -13.52,-3.63 -16.82,1.32s2.64,14.84 6.6,16.49s25.73,1 40.57,11.87s53.76,2 53.76,2l16.16,-6.27l-8.58,-18.48z" opacity="0.05" id="svg_36"/>
  <path d="m515.7,515.17s-16.49,-11.87 -50.46,3s-118.73,22.76 -118.73,22.76s-28.36,28.36 4,39.91s154.35,2 154.35,2s49.8,3.3 65.3,6.93c9.38,2.2 2,-8.42 -5.35,-17.14a30.29,30.29 0 0 0 -20.64,-10.7c-9.74,-0.83 -23.25,-3.89 -29.43,-14.05c0,0 -11.87,-5.94 -29.68,11.87l-17.18,-6.98s47.16,-14.84 48.81,-24.74s-0.99,-12.86 -0.99,-12.86z" fill="#ffd5d8" id="svg_37"/>
  <path d="m515.7,515.17s-16.49,-11.87 -50.46,3s-118.73,22.76 -118.73,22.76s-28.36,28.36 4,39.91s154.35,2 154.35,2s49.8,3.3 65.3,6.93c8.22,1.92 3.55,-6 -2.64,-13.82a37.88,37.88 0 0 0 -25.4,-14.22c-9.5,-1.08 -21.62,-4.39 -27.37,-13.85c0,0 -11.87,-5.94 -29.68,11.87l-17.19,-6.98s47.16,-14.84 48.81,-24.74s-0.99,-12.86 -0.99,-12.86z" opacity="0.05" id="svg_38"/>
  <path d="m516.03,468.34s-20.78,-33 -69.92,-4.29l-63,35s-35,22.1 -38.26,33.31s-8.25,30.34 26.06,37.6s114.12,16.49 130.94,24.74c0,0 14.84,2 20.78,5.61s16.82,2.64 16.82,2.64s21.11,3.63 25.73,8.25s12.53,-7.92 2.64,-13.85s-32.32,-21.77 -32,-28s-7.59,-17.24 -15.21,-18.58s-17.48,9.89 -17.48,9.89s-12.53,2 -20.12,-3c0,0 -38.92,-8.91 -42.88,-11.54s-31,-12.86 -31,-12.86s64,-0.66 82.78,-17.81c0,0 7.26,-5.28 13.19,-3.63c0.05,0.05 29.4,-11.16 10.93,-43.48z" fill="#ffd5d8" id="svg_39"/>
  <path d="m329.02,406.33s18.8,13.19 33.31,0s6.28,40.57 6.28,40.57s-20.12,-26.72 -50.13,-9.23l10.54,-31.34z" fill="#ffd5d8" id="svg_40"/>
  <path d="m329.02,406.33s18.8,13.19 33.31,0s6.28,40.57 6.28,40.57s-20.12,-26.72 -50.13,-9.23l10.54,-31.34z" opacity="0.05" id="svg_41"/>
  <path d="m248.55,519.46s19.79,-16.82 31,-17.15c3.34,-0.1 7.2,-3.5 11,-8.22a42.22,42.22 0 0 1 40.79,-15c6.38,1.18 14.23,1.15 23.76,-1.21c34.63,-8.58 17.48,-30 17.48,-30l-10.88,-9.23s-14.84,-10.22 -20.45,-9.56s-20.12,15.5 -21.77,13.85s-21.77,-16.49 -25.07,-20.45s-29.7,-16.82 -23.1,-20.45s39.9,-17.15 33.3,-19.79s-42.22,-6.6 -56.07,9.89s-6.93,117.75 0.01,127.32z" fill="#f8f9fa" id="svg_42"/>
  <path d="m248.55,519.46s19.79,-16.82 31,-17.15c3.34,-0.1 7.2,-3.5 11,-8.22a42.22,42.22 0 0 1 40.79,-15c6.38,1.18 14.23,1.15 23.76,-1.21c34.63,-8.58 17.48,-30 17.48,-30l-10.88,-9.23s-14.84,-10.22 -20.45,-9.56s-20.12,15.5 -21.77,13.85s-21.77,-16.49 -25.07,-20.45s-29.7,-16.82 -23.1,-20.45s39.9,-17.15 33.3,-19.79s-42.22,-6.6 -56.07,9.89s-6.93,117.75 0.01,127.32z" opacity="0.05" id="svg_43"/>
  <path d="m249.87,517.15s19.79,-16.82 31,-17.15c3.34,-0.1 7.2,-3.5 11,-8.22a42.22,42.22 0 0 1 40.74,-15.01c6.38,1.18 14.23,1.15 23.76,-1.21c34.63,-8.58 17.48,-30 17.48,-30l-10.88,-9.23s-14.84,-10.22 -20.45,-9.56s-20.12,15.5 -21.77,13.85s-21.77,-16.49 -25.07,-20.45s-29.65,-16.81 -23.07,-20.4s39.91,-17.15 33.31,-19.79s-42.22,-6.6 -56.07,9.89s-6.91,117.71 0.02,127.28z" fill="#f8f9fa" id="svg_44"/>
  <path d="m346.5,405.67s5.28,-25.07 43.87,-15.17s57.72,31.33 57.72,31.33l-35,16.16l-42.88,-14.51s-24.03,0.29 -23.71,-17.81z" fill="#ffd5d8" id="svg_45"/>
  <path d="m417.09,399.4s37.11,8 40.61,13.51a1.19,1.19 0 0 0 0.29,0.34c1,0.66 2.64,16.49 13.19,14.51s34,16.16 34,16.16s16.16,1.65 21.77,16.82s15.17,44.86 21.44,48.48s-2.64,29.35 -9.89,32s-33.31,8.91 -35.62,5.61s-22.43,-6.93 -21.11,-17.48s9.23,-20.45 3,-26.72s-10.22,-22.76 -19.46,-26.06s-25.73,-4.29 -35.62,2.31s-21.84,6.89 -21.84,6.89s-20.45,-11.87 -23.75,-20.12c-2.22,-5.56 -13.28,-14.86 -20.26,-20.33a16,16 0 0 1 -6.11,-12c-0.29,-8.14 -0.55,-20.14 0.31,-22.08c1.32,-3 19.46,-20.78 19.46,-20.78l39.59,8.94z" opacity="0.05" id="svg_46"/>
  <path d="m418.41,398.77s37.11,8 40.61,13.51a1.19,1.19 0 0 0 0.29,0.34c1,0.66 2.64,16.49 13.19,14.51s34,16.16 34,16.16s16.16,1.65 21.77,16.82s15.17,44.86 21.44,48.48s-2.64,29.35 -9.89,32s-33.31,8.91 -35.62,5.61s-22.43,-6.93 -21.11,-17.48s9.23,-20.45 3,-26.72s-10.22,-22.76 -19.46,-26.06s-25.73,-4.29 -35.62,2.31s-22.92,7.75 -22.92,7.75s-19.29,-12.7 -22.59,-20.94c-2.22,-5.56 -13.28,-14.86 -20.26,-20.33a16,16 0 0 1 -6.11,-12c-0.29,-8.14 -0.55,-20.14 0.31,-22.08c1.32,-3 19.46,-20.78 19.46,-20.78l39.51,8.9z" fill="#ff7c5e" id="svg_47"/>
  <path d="m332.98,470.31c-0.33,0.33 -5.94,8.58 0.66,13.19a14.77,14.77 0 0 0 12.86,2.27l-13.52,-15.46z" fill="#ffd5d8" id="svg_48"/>
  <path d="m364.61,398.41s8.91,-17.81 28,-13.19s46.83,21.44 53.43,38.26s-25,37.29 -25,37.29l-37.6,17.48s-11.54,4.62 -14.84,3s-19.13,12.52 -19.13,12.52s-17.81,-17.15 -17.81,-23.09s27.71,-14.91 27.71,-14.91s33,-6.27 32.65,-12.53c0,0 5.61,-6.6 2.64,-8.58s-34.8,-11.38 -34.8,-11.38s-1.15,-20.91 4.75,-24.87z" opacity="0.1" id="svg_49"/>
  <path d="m363.61,397.42s8.91,-17.81 28,-13.19s46.83,21.44 53.43,38.26s-24.99,37.28 -24.99,37.28l-37.6,17.48s-11.54,4.62 -14.84,3s-19.13,12.52 -19.13,12.52s-17.81,-17.15 -17.81,-23.09s27.71,-14.91 27.71,-14.91s33,-6.27 32.65,-12.53c0,0 5.61,-6.6 2.64,-8.58s-34.8,-11.38 -34.8,-11.38s-1.15,-20.9 4.74,-24.86z" fill="#ff7c5e" id="svg_50"/>
  <path d="m321.44,434.36a41.14,41.14 0 0 1 17.61,-5.83c1.81,-3.49 -2.94,-7.29 -2.94,-11.49c0,-3.52 -1.34,-4.86 -2.64,-7.92c-4.72,-1.71 -1.48,-6.1 -1.48,-6.1l-10.55,31.34z" opacity="0.1" id="svg_51"/>
  <circle cx="313.52" cy="420.18" r="25.4" fill="#ffd5d8" id="svg_52"/>
  <path d="m294.48,430.6c5.67,-4.38 13.05,-5.85 20.19,-6.49c4.46,-0.4 9,-0.54 13.28,-1.9a48.2,48.2 0 0 0 7.14,-3.16c3.06,-1.56 6.22,-3.2 8.31,-5.93c3.26,-4.26 3.16,-10.16 5.2,-15.13c3.69,-9 13.87,-13.66 23.53,-14.87c5.61,-0.71 11.74,-0.71 16.18,-4.22a12.27,12.27 0 0 0 4.39,-7.25a2.61,2.61 0 0 0 -0.16,-1.86a2.66,2.66 0 0 0 -1.07,-0.86c-5.8,-3.09 -12.78,-2.29 -19.35,-2.44c-10.69,-0.23 -21.11,-3.17 -31.45,-5.88c-4.38,-1.15 -9.11,-2.25 -13.33,-0.63c-4,1.53 -6.71,5.17 -9.92,8c-13.12,11.58 -34.9,9.9 -46.57,22.94c-2.7,3 -4.73,7.13 -3.74,11.06c0.41,1.61 1.29,3.08 1.58,4.72c0.57,3.23 -1.27,6.33 -2.83,9.21s-2.92,6.4 -1.47,9.33c2.23,4.48 9,4.15 12.53,7.7c1.64,1.65 2.42,4 4.13,5.6c2.74,2.52 6.93,2.32 10.63,2c2,-0.19 5.27,-0.85 4.7,-3.53c-0.48,-2.4 -3.65,-3.43 -1.9,-6.41z" fill="#85596b" id="svg_53"/>
  <path d="m285.61,445.77s17.32,-13 28.2,-8.74s13.85,6.6 20.78,4s9.89,5.28 9.89,5.28l-43.16,12.46l-15.71,-13z" fill="#f8f9fa" id="svg_54"/>
  <path d="m262.24,468.5s7.92,-20.45 17.48,-24.41" opacity="0.05" id="svg_55"/>
  <path d="m252.01,461.9s7.92,-20.45 17.48,-24.41" opacity="0.05" id="svg_56"/>
  <path d="m437.37,466.85s28,-13.52 46.83,-12.2s22.1,-10.55 22.1,-10.55" opacity="0.05" id="svg_57"/>
  <path d="m316.24,804.41c-2.33,-2.17 -4.52,-4.73 -5.2,-7.84s0.65,-6.85 3.63,-8c3.33,-1.28 6.9,1 9.6,3.37s5.8,5 9.33,4.5a14.21,14.21 0 0 1 -4.39,-13.3a5.56,5.56 0 0 1 1.22,-2.7c1.85,-2 5.21,-1.13 7.42,0.43c7,5 9,14.53 9.05,23.15c0.71,-3.11 0.11,-6.35 0.13,-9.54s0.89,-6.72 3.58,-8.44a10.79,10.79 0 0 1 5.46,-1.28c3.17,-0.12 6.7,0.2 8.86,2.52c2.69,2.88 2,7.71 -0.35,10.88s-5.9,5.16 -9.17,7.35a20.34,20.34 0 0 0 -6.55,6.25a6.19,6.19 0 0 0 -0.49,1.12l-19.85,0a55.36,55.36 0 0 1 -12.28,-8.47z" fill="#6c63ff" id="svg_58"/>
  <path d="m774.77,715.26a9.84,9.84 0 0 1 -3.23,-4.88c-0.42,-1.94 0.41,-4.26 2.26,-5c2.07,-0.79 4.29,0.64 6,2.1s3.6,3.11 5.8,2.8a8.83,8.83 0 0 1 -2.73,-8.27a3.45,3.45 0 0 1 0.76,-1.68c1.15,-1.23 3.24,-0.7 4.62,0.27c4.38,3.08 5.6,9 5.63,14.39c0.44,-1.93 0.07,-3.95 0.08,-5.93s0.55,-4.18 2.23,-5.24a6.71,6.71 0 0 1 3.4,-0.8c2,-0.07 4.16,0.13 5.51,1.57c1.67,1.79 1.24,4.79 -0.22,6.76s-3.67,3.21 -5.7,4.57a12.64,12.64 0 0 0 -4.07,3.89a3.85,3.85 0 0 0 -0.3,0.69l-12.41,0a34.41,34.41 0 0 1 -7.63,-5.24z" fill="#6c63ff" id="svg_59"/>
 </g>
</svg>